<svg width="164" height="34" viewBox="0 0 164 34" fill="none" xmlns="http://www.w3.org/2000/svg">
<g clip-path="url(#clip0_165135_36)">
<path fill-rule="evenodd" clip-rule="evenodd" d="M17.889 11.1797C16.7378 10.4105 15.3845 10 14 10V3C16.7689 3 19.4757 3.82109 21.778 5.35943C24.0803 6.89776 25.8747 9.08427 26.9343 11.6424C27.9939 14.2006 28.2712 17.0155 27.731 19.7313C27.1908 22.447 25.8574 24.9416 23.8995 26.8995C21.9416 28.8574 19.447 30.1908 16.7313 30.731C14.0155 31.2712 11.2006 30.9939 8.64241 29.9343C6.08427 28.8747 3.89776 27.0803 2.35943 24.778C0.821086 22.4757 0 19.7689 0 17H7C7 18.3845 7.41055 19.7378 8.17971 20.889C8.94887 22.0401 10.0421 22.9373 11.3212 23.4672C12.6003 23.997 14.0078 24.1356 15.3656 23.8655C16.7235 23.5954 17.9708 22.9287 18.9498 21.9498C19.9287 20.9708 20.5954 19.7235 20.8655 18.3656C21.1356 17.0078 20.997 15.6003 20.4672 14.3212C19.9373 13.0421 19.0401 11.9489 17.889 11.1797Z" fill="#B73713"/>
<path fill-rule="evenodd" clip-rule="evenodd" d="M7 3C7 3.91926 6.81894 4.82951 6.46716 5.67878C6.11537 6.52807 5.59976 7.29974 4.94975 7.94975C4.29974 8.59977 3.52807 9.11538 2.67878 9.46716C1.8295 9.81894 0.91925 10 3.05977e-07 10L0 17C1.8385 17 3.65901 16.6379 5.35757 15.9343C7.05614 15.2308 8.5995 14.1995 9.89947 12.8995C11.1995 11.5995 12.2307 10.0561 12.9343 8.35757C13.6379 6.65901 14 4.8385 14 3L7 3Z" fill="#B73713"/>
</g>
<path d="M41.472 25V10.744H36.312V8.2H49.416V10.744H44.256V25H41.472ZM50.9584 25V8.2H53.6464V25H50.9584ZM59.0944 25V18.856H61.7824V25H59.0944ZM59.0944 18.856C59.0944 17.896 58.9824 17.16 58.7584 16.648C58.5344 16.12 58.2224 15.752 57.8224 15.544C57.4384 15.336 56.9904 15.232 56.4784 15.232C55.5664 15.216 54.8624 15.512 54.3664 16.12C53.8864 16.728 53.6464 17.6 53.6464 18.736H52.6144C52.6144 17.472 52.7984 16.392 53.1664 15.496C53.5504 14.584 54.0864 13.896 54.7744 13.432C55.4624 12.952 56.2784 12.712 57.2224 12.712C58.1664 12.712 58.9824 12.904 59.6704 13.288C60.3584 13.672 60.8784 14.272 61.2304 15.088C61.5984 15.888 61.7824 16.936 61.7824 18.232V18.856H59.0944ZM69.5687 25.288C68.4007 25.288 67.3607 25.024 66.4487 24.496C65.5527 23.952 64.8407 23.208 64.3127 22.264C63.8007 21.32 63.5447 20.232 63.5447 19C63.5447 17.768 63.8087 16.68 64.3367 15.736C64.8647 14.792 65.5847 14.056 66.4967 13.528C67.4247 12.984 68.4807 12.712 69.6647 12.712C70.7367 12.712 71.7047 12.992 72.5687 13.552C73.4327 14.096 74.1127 14.888 74.6087 15.928C75.1207 16.968 75.3767 18.208 75.3767 19.648H65.9447L66.3047 19.312C66.3047 20.048 66.4647 20.688 66.7847 21.232C67.1047 21.76 67.5287 22.168 68.0567 22.456C68.5847 22.744 69.1687 22.888 69.8087 22.888C70.5447 22.888 71.1527 22.728 71.6327 22.408C72.1127 22.072 72.4887 21.64 72.7607 21.112L75.1367 22.12C74.8007 22.76 74.3687 23.32 73.8407 23.8C73.3287 24.28 72.7127 24.648 71.9927 24.904C71.2887 25.16 70.4807 25.288 69.5687 25.288ZM66.4727 17.92L66.0887 17.584H72.8567L72.4967 17.92C72.4967 17.264 72.3527 16.728 72.0647 16.312C71.7767 15.88 71.4087 15.56 70.9607 15.352C70.5287 15.128 70.0727 15.016 69.5927 15.016C69.1127 15.016 68.6327 15.128 68.1527 15.352C67.6727 15.56 67.2727 15.88 66.9527 16.312C66.6327 16.728 66.4727 17.264 66.4727 17.92ZM88.6725 25.288C87.7925 25.288 86.9845 25.184 86.2485 24.976C85.5285 24.768 84.8885 24.48 84.3285 24.112C83.7845 23.744 83.3285 23.336 82.9605 22.888C82.6085 22.424 82.3605 21.944 82.2165 21.448L84.9525 20.608C85.1605 21.2 85.5685 21.72 86.1765 22.168C86.7845 22.616 87.5365 22.848 88.4325 22.864C89.4725 22.864 90.2965 22.648 90.9045 22.216C91.5125 21.784 91.8165 21.216 91.8165 20.512C91.8165 19.872 91.5605 19.352 91.0485 18.952C90.5365 18.536 89.8485 18.216 88.9845 17.992L86.9205 17.464C86.1365 17.256 85.4245 16.952 84.7845 16.552C84.1605 16.152 83.6645 15.648 83.2965 15.04C82.9445 14.432 82.7685 13.712 82.7685 12.88C82.7685 11.312 83.2805 10.096 84.3045 9.232C85.3285 8.352 86.7925 7.912 88.6965 7.912C89.7685 7.912 90.7045 8.08 91.5045 8.416C92.3205 8.736 92.9925 9.184 93.5205 9.76C94.0485 10.32 94.4405 10.96 94.6965 11.68L92.0085 12.544C91.7685 11.904 91.3525 11.376 90.7605 10.96C90.1685 10.544 89.4325 10.336 88.5525 10.336C87.6405 10.336 86.9205 10.552 86.3925 10.984C85.8805 11.416 85.6245 12.016 85.6245 12.784C85.6245 13.408 85.8245 13.896 86.2245 14.248C86.6405 14.584 87.2005 14.84 87.9045 15.016L89.9685 15.52C91.4725 15.888 92.6405 16.52 93.4725 17.416C94.3045 18.312 94.7205 19.304 94.7205 20.392C94.7205 21.352 94.4885 22.2 94.0245 22.936C93.5605 23.672 92.8725 24.248 91.9605 24.664C91.0645 25.08 89.9685 25.288 88.6725 25.288ZM105.553 29.8V15.232L105.697 13H108.241V29.8H105.553ZM101.761 25.288C100.673 25.288 99.7209 25.032 98.9049 24.52C98.1049 23.992 97.4729 23.256 97.0089 22.312C96.5609 21.368 96.3369 20.264 96.3369 19C96.3369 17.72 96.5609 16.616 97.0089 15.688C97.4729 14.744 98.1049 14.016 98.9049 13.504C99.7209 12.976 100.673 12.712 101.761 12.712C102.769 12.712 103.633 12.976 104.353 13.504C105.089 14.016 105.649 14.744 106.033 15.688C106.417 16.616 106.609 17.72 106.609 19C106.609 20.264 106.417 21.368 106.033 22.312C105.649 23.256 105.089 23.992 104.353 24.52C103.633 25.032 102.769 25.288 101.761 25.288ZM102.433 22.84C103.041 22.84 103.577 22.68 104.041 22.36C104.521 22.024 104.889 21.568 105.145 20.992C105.417 20.416 105.553 19.752 105.553 19C105.553 18.248 105.417 17.584 105.145 17.008C104.889 16.432 104.521 15.984 104.041 15.664C103.577 15.344 103.033 15.184 102.409 15.184C101.769 15.184 101.201 15.344 100.705 15.664C100.209 15.984 99.8169 16.432 99.5289 17.008C99.2569 17.584 99.1129 18.248 99.0969 19C99.1129 19.752 99.2569 20.416 99.5289 20.992C99.8169 21.568 100.209 22.024 100.705 22.36C101.217 22.68 101.793 22.84 102.433 22.84ZM118.823 25L118.679 22.792V13H121.343V25H118.823ZM110.519 19.144V13H113.207V19.144H110.519ZM113.207 19.144C113.207 20.088 113.319 20.824 113.543 21.352C113.767 21.88 114.071 22.248 114.455 22.456C114.855 22.664 115.311 22.768 115.823 22.768C116.735 22.784 117.439 22.488 117.935 21.88C118.431 21.272 118.679 20.4 118.679 19.264H119.687C119.687 20.528 119.495 21.616 119.111 22.528C118.743 23.424 118.215 24.112 117.527 24.592C116.855 25.056 116.039 25.288 115.079 25.288C114.135 25.288 113.319 25.096 112.631 24.712C111.959 24.328 111.439 23.728 111.071 22.912C110.703 22.096 110.519 21.048 110.519 19.768V19.144H113.207ZM124.21 25V13H126.874V25H124.21ZM125.554 10.72C125.122 10.72 124.746 10.568 124.426 10.264C124.122 9.944 123.97 9.568 123.97 9.136C123.97 8.704 124.122 8.336 124.426 8.032C124.746 7.728 125.122 7.576 125.554 7.576C125.986 7.576 126.354 7.728 126.658 8.032C126.978 8.336 127.138 8.704 127.138 9.136C127.138 9.568 126.978 9.944 126.658 10.264C126.354 10.568 125.986 10.72 125.554 10.72ZM131.53 18.616C131.53 17.32 131.778 16.256 132.274 15.424C132.77 14.592 133.41 13.976 134.194 13.576C134.994 13.16 135.826 12.952 136.69 12.952V15.52C135.954 15.52 135.258 15.624 134.602 15.832C133.962 16.024 133.442 16.344 133.042 16.792C132.642 17.24 132.442 17.832 132.442 18.568L131.53 18.616ZM129.754 25V13H132.442V25H129.754ZM139.961 18.616C139.961 17.32 140.209 16.256 140.705 15.424C141.201 14.592 141.841 13.976 142.625 13.576C143.425 13.16 144.257 12.952 145.121 12.952V15.52C144.385 15.52 143.689 15.624 143.033 15.832C142.393 16.024 141.873 16.344 141.473 16.792C141.073 17.24 140.873 17.832 140.873 18.568L139.961 18.616ZM138.185 25V13H140.873V25H138.185ZM151.968 25.288C150.8 25.288 149.76 25.024 148.848 24.496C147.952 23.952 147.24 23.208 146.712 22.264C146.2 21.32 145.944 20.232 145.944 19C145.944 17.768 146.208 16.68 146.736 15.736C147.264 14.792 147.984 14.056 148.896 13.528C149.824 12.984 150.88 12.712 152.064 12.712C153.136 12.712 154.104 12.992 154.968 13.552C155.832 14.096 156.512 14.888 157.008 15.928C157.52 16.968 157.776 18.208 157.776 19.648H148.344L148.704 19.312C148.704 20.048 148.864 20.688 149.184 21.232C149.504 21.76 149.928 22.168 150.456 22.456C150.984 22.744 151.568 22.888 152.208 22.888C152.944 22.888 153.552 22.728 154.032 22.408C154.512 22.072 154.888 21.64 155.16 21.112L157.536 22.12C157.2 22.76 156.768 23.32 156.24 23.8C155.728 24.28 155.112 24.648 154.392 24.904C153.688 25.16 152.88 25.288 151.968 25.288ZM148.872 17.92L148.488 17.584H155.256L154.896 17.92C154.896 17.264 154.752 16.728 154.464 16.312C154.176 15.88 153.808 15.56 153.36 15.352C152.928 15.128 152.472 15.016 151.992 15.016C151.512 15.016 151.032 15.128 150.552 15.352C150.072 15.56 149.672 15.88 149.352 16.312C149.032 16.728 148.872 17.264 148.872 17.92ZM159.547 25V8.2H162.235V25H159.547Z" fill="white"/>
<defs>
<clipPath id="clip0_165135_36">
<rect width="28" height="28" fill="white" transform="translate(0 3)"/>
</clipPath>
</defs>
</svg>
